<?xml version="1.0" encoding="UTF-8"?>
<svg viewBox="0 0 744.09448819 1052.3622047" xmlns="http://www.w3.org/2000/svg" xmlns:xlink="http://www.w3.org/1999/xlink">
 <defs>
  <linearGradient id="a">
   <stop stop-color="#fff" offset="0"/>
   <stop stop-color="#fff" stop-opacity="0" offset="1"/>
  </linearGradient>
  <radialGradient id="f" cx="147.9" cy="259.77" r="227.54" gradientTransform="matrix(.61 1.0264e-16 -1.0264e-16 .61 57.68 101.31)" gradientUnits="userSpaceOnUse" spreadMethod="reflect">
   <stop stop-color="#24424c" offset="0"/>
   <stop stop-color="#79dfee" offset="1"/>
  </radialGradient>
  <radialGradient id="e" cx="-235.12" cy="409.57" r="206.68" gradientTransform="matrix(.99175 -.1351 .1351 .99175 -57.273 -28.385)" gradientUnits="userSpaceOnUse">
   <stop stop-opacity=".25098" offset="0"/>
   <stop stop-opacity="0" offset="1"/>
  </radialGradient>
  <radialGradient id="d" cx="-235.12" cy="409.57" r="206.68" gradientUnits="userSpaceOnUse">
   <stop stop-color="#fff" stop-opacity=".37255" offset="0"/>
   <stop stop-color="#fff" stop-opacity=".09412" offset="1"/>
  </radialGradient>
  <radialGradient id="c" cx="-209.52" cy="340.36" r="103.34" fx="-207.43" fy="302.83" gradientTransform="matrix(1.0673 -2.8949e-7 1.666e-7 .61423 14.1 131.3)" gradientUnits="userSpaceOnUse" xlink:href="#a"/>
  <radialGradient id="b" cx="-205.8" cy="344.59" r="103.34" fx="-200.76" fy="374.53" gradientTransform="matrix(.80711 -.21627 .14995 .55962 -90.939 105.41)" gradientUnits="userSpaceOnUse" xlink:href="#a"/>
 </defs>
 <path transform="matrix(1.1998 0 0 1.1998 194.6 214.51)" d="m375.44 259.77a227.54 227.54 0 1 1 -455.08 0 227.54 227.54 0 1 1 455.08 0z" fill="url(#f)"/>
 <path transform="matrix(.96457 .1314 -.1314 .96457 652.65 162.02)" d="m-28.442 401.98-133.28 14.521 128.2 39.23-132.5-20.469 113.68 71.074-122.68-54.064 91.408 98.074-104.51-83.974 62.91 118.39-79.215-108.16 30.125 130.64-48.521-124.98-4.7132 133.98-14.521-133.28-39.23 128.2 20.469-132.5-71.074 113.68 54.064-122.68-98.074 91.408 83.974-104.51-118.39 62.91 108.16-79.215-130.64 30.125 124.98-48.521-133.98-4.7132 133.28-14.521-128.2-39.23 132.5 20.469-113.68-71.074 122.68 54.064-91.408-98.074 104.51 83.974-62.91-118.39 79.215 108.16-30.125-130.64 48.521 124.98 4.7132-133.98 14.521 133.28 39.23-128.2-20.469 132.5 71.074-113.68-54.064 122.68 98.074-91.408-83.974 104.51 118.39-62.91-108.16 79.215 130.64-30.125-124.98 48.521 133.98 4.7132z" fill="url(#e)"/>
 <path transform="matrix(1.1386 0 0 1.1386 639.76 59.846)" d="m-28.442 401.98-133.28 14.521 128.2 39.23-132.5-20.469 113.68 71.074-122.68-54.064 91.408 98.074-104.51-83.974 62.91 118.39-79.215-108.16 30.125 130.64-48.521-124.98-4.7132 133.98-14.521-133.28-39.23 128.2 20.469-132.5-71.074 113.68 54.064-122.68-98.074 91.408 83.974-104.51-118.39 62.91 108.16-79.215-130.64 30.125 124.98-48.521-133.98-4.7132 133.28-14.521-128.2-39.23 132.5 20.469-113.68-71.074 122.68 54.064-91.408-98.074 104.51 83.974-62.91-118.39 79.215 108.16-30.125-130.64 48.521 124.98 4.7132-133.98 14.521 133.28 39.23-128.2-20.469 132.5 71.074-113.68-54.064 122.68 98.074-91.408-83.974 104.51 118.39-62.91-108.16 79.215 130.64-30.125-124.98 48.521 133.98 4.7132z" fill="url(#d)"/>
 <path transform="matrix(.46992 0 0 .46992 302.55 404.11)" d="m375.44 259.77a227.54 227.54 0 1 1 -455.08 0 227.54 227.54 0 1 1 455.08 0z"/>
 <path transform="matrix(1.0828 -1.0828 1.0828 1.0828 116.83 -181.39)" d="m-106.18 340.36a103.34 63.521 0 1 1 -206.68 0 103.34 63.521 0 1 1 206.68 0z" fill="url(#c)"/>
 <path transform="matrix(.91554 -.24532 .24532 .91554 585.31 336.34)" d="m-106.18 340.36a103.34 63.521 0 1 1 -206.68 0 103.34 63.521 0 1 1 206.68 0z" fill="url(#b)"/>
</svg>
